<svg width="38" height="42" viewBox="0 0 38 42" fill="none" xmlns="http://www.w3.org/2000/svg">
<path d="M14.443 2.625H23.557C25.0934 2.625 26.4516 3.70945 26.934 5.31727L27.7059 7.875H33.25C35.8699 7.875 38 10.2293 38 13.125V34.125C38 37.0207 35.8699 39.375 33.25 39.375H4.75C2.12637 39.375 0 37.0207 0 34.125V13.125C0 10.2293 2.12637 7.875 4.75 7.875H10.2941L11.066 5.31727C11.5484 3.70945 12.9066 2.625 14.443 2.625ZM19 31.5C22.9336 31.5 26.125 27.9727 26.125 23.625C26.125 19.2035 22.9336 15.75 19 15.75C14.9996 15.75 11.875 19.2035 11.875 23.625C11.875 27.9727 14.9996 31.5 19 31.5Z" fill="black"/>
</svg>
