<svg width="29" height="33" viewBox="0 0 29 33" fill="none" xmlns="http://www.w3.org/2000/svg">
<path d="M28.1459 27.3698C29.2787 28.6588 29.2787 30.7469 28.1459 32.0359C27.5841 32.6803 26.841 33 26.098 33C25.3549 33 24.6136 32.6778 24.0482 32.0333L14.4989 21.1725L4.95046 32.0307C4.3841 32.6803 3.64193 33 2.89977 33C2.15761 33 1.41636 32.6803 0.849543 32.0307C-0.283181 30.7417 -0.283181 28.6536 0.849543 27.3647L10.4007 16.4961L0.849543 5.63276C-0.283181 4.3438 -0.283181 2.25568 0.849543 0.966721C1.98227 -0.32224 3.81728 -0.32224 4.95 0.966721L14.4989 11.8404L24.05 0.971878C25.1827 -0.317084 27.0177 -0.317084 28.1505 0.971878C29.2832 2.26084 29.2832 4.34896 28.1505 5.63792L18.5993 16.5064L28.1459 27.3698Z" fill="#494343"/>
</svg>
