<svg width="25" height="25" viewBox="0 0 25 25" fill="none" xmlns="http://www.w3.org/2000/svg">
<path d="M5.83008 0.111413C6.96777 -0.110124 8.11523 0.00292867 9.13574 0.41574L11.6113 4.83905L7.9248 9.14416C7.85156 9.23552 7.76855 9.30403 7.8125 9.48103C7.8125 9.60094 7.81738 9.72084 7.93945 9.80648L13.4082 15.7446C13.5498 15.8987 13.7256 15.9044 13.9209 15.7617C14.0723 15.6133 14.1064 15.362 14.0039 15.1679L11.0547 9.56668L15.4834 5.25014C15.6104 5.07885 15.6592 4.9304 15.6006 4.74769L14.4922 1.1186C15.8887 0.164513 17.5391 -0.206617 19.1699 0.111413C22.5342 0.766887 25 4.17101 25 8.16209V8.49325C25 10.8628 24.1602 13.1295 22.6758 14.7454L13.8525 24.3776C13.4863 24.7773 13.0029 25 12.5 25C11.9971 25 11.5137 24.7773 11.1475 24.3776L2.32373 14.7454C0.841309 13.1295 0 10.8628 0 8.49325V8.16209C0 4.17101 2.4668 0.766887 5.83008 0.110842V0.111413Z" fill="black"/>
</svg>
