<svg width="55" height="54" viewBox="0 0 55 54" fill="none" xmlns="http://www.w3.org/2000/svg">
<path d="M48.8698 30.3328L48.9366 47.2184C48.9462 50.9625 46.2057 54 42.8255 54H12.2318C8.85634 54 6.1197 50.973 6.1197 47.25V30.3328H3.06033C1.33872 30.3328 0 28.8457 0 26.9473C0 25.998 0.28684 25.1543 0.955816 24.416L25.4375 0.845437C26.1059 0.10568 26.8698 0 27.5382 0C28.2066 0 28.9705 0.211359 29.553 0.739758L39.7222 10.6207V6.75C39.7222 4.88637 41.0877 3.375 42.7778 3.375H45.8333C47.5234 3.375 48.8889 4.88637 48.8889 6.75V19.5117L53.9306 24.416C54.6944 25.1543 55.0859 25.998 54.9809 26.9473C54.9809 28.8457 53.5486 30.3328 51.9253 30.3328H48.8698ZM27.5 30.375C30.8707 30.375 33.6111 27.348 33.6111 23.625C33.6111 19.902 30.8707 16.875 27.5 16.875C24.1293 16.875 21.3889 19.902 21.3889 23.625C21.3889 27.348 24.1293 30.375 27.5 30.375ZM18.3333 43.875H36.6667C37.5069 43.875 38.1944 43.1156 38.1944 42.1875C38.1944 37.5258 34.776 33.75 30.5556 33.75H24.4444C20.224 33.75 16.8056 37.5258 16.8056 42.1875C16.8056 43.1156 17.4931 43.875 18.3333 43.875Z" fill="black"/>
</svg>
