<svg width="63" height="62" viewBox="0 0 63 62" fill="none" xmlns="http://www.w3.org/2000/svg">
<g filter="url(#filter0_d_209_14)">
<path d="M34.2913 45.5625C34.2913 46.4944 33.6748 47.25 32.9144 47.25H19.1456C18.3851 47.25 17.7688 46.4944 17.7688 45.5625V13.5H8.13061C5.84929 13.5 4 15.7676 4 18.5625V48.9375C4 51.7335 5.84932 54 8.13063 54H43.9295C46.2108 54 48.0601 51.7335 48.0601 48.9375L48.0601 40.5H34.2913V45.5625ZM12.9497 46.3008C12.9497 46.8249 12.6028 47.25 12.1752 47.25H9.59354C9.16594 47.25 8.81905 46.8249 8.81905 46.3008V43.1367C8.81905 42.6126 9.16594 42.1875 9.59354 42.1875H12.1752C12.6028 42.1875 12.9497 42.6126 12.9497 43.1367V46.3008ZM12.9497 35.332C12.9497 35.8561 12.6028 36.2812 12.1752 36.2812H9.59354C9.16594 36.2812 8.81905 35.8561 8.81905 35.332V32.168C8.81905 31.6439 9.16594 31.2188 9.59354 31.2188H12.1752C12.6028 31.2188 12.9497 31.6439 12.9497 32.168V35.332ZM12.9497 24.3633C12.9497 24.8874 12.6028 25.3125 12.1752 25.3125H9.59354C9.16594 25.3125 8.81905 24.8874 8.81905 24.3633V21.1992C8.81905 20.6719 9.16585 20.25 9.59354 20.25H12.1752C12.6028 20.25 12.9497 20.6751 12.9497 21.1992V24.3633ZM39.1104 43.1367C39.1104 42.6126 39.4573 42.1875 39.8849 42.1875H42.4665C42.8941 42.1875 43.241 42.6126 43.241 43.1367V46.3008C43.241 46.8249 42.8941 47.25 42.4665 47.25H39.8849C39.4573 47.25 39.1104 46.8249 39.1104 46.3008V43.1367ZM54.867 0H24.5757C22.3727 0 20.4451 2.26652 20.4451 5.0625V32.0625C20.4451 34.8585 22.2944 37.125 24.5757 37.125H54.867C57.1483 37.125 58.9977 34.8585 58.9977 32.0625V5.0625C59.0751 2.26652 57.2249 0 54.867 0ZM30.0832 6.75C31.6047 6.75 32.837 8.26137 32.837 10.125C32.837 11.9886 31.6047 13.5 30.0832 13.5C28.6375 13.5 27.3295 11.9918 27.3295 10.125C27.3295 8.2582 28.6375 6.75 30.0832 6.75ZM53.4041 29.4891C53.1631 30.0375 52.6984 30.375 52.1907 30.375H27.3295C26.8131 30.375 26.4173 30.0164 26.1763 29.4574C25.944 28.8879 25.987 28.2023 26.2968 27.6961L32.3206 17.5711C32.5788 17.1281 32.9919 16.875 33.3533 16.875C33.793 16.875 34.2064 17.1325 34.466 17.5684L36.3893 20.802L41.7884 10.8764C42.0448 10.4066 42.4751 10.125 43.0087 10.125C43.4689 10.125 43.8985 10.4068 44.154 10.8765L53.3361 27.7515C53.6192 28.2656 53.645 28.9301 53.4041 29.4891Z" fill="black"/>
</g>
<defs>
<filter id="filter0_d_209_14" x="0" y="0" width="63" height="62" filterUnits="userSpaceOnUse" color-interpolation-filters="sRGB">
<feFlood flood-opacity="0" result="BackgroundImageFix"/>
<feColorMatrix in="SourceAlpha" type="matrix" values="0 0 0 0 0 0 0 0 0 0 0 0 0 0 0 0 0 0 127 0" result="hardAlpha"/>
<feOffset dy="4"/>
<feGaussianBlur stdDeviation="2"/>
<feComposite in2="hardAlpha" operator="out"/>
<feColorMatrix type="matrix" values="0 0 0 0 0 0 0 0 0 0 0 0 0 0 0 0 0 0 0.25 0"/>
<feBlend mode="normal" in2="BackgroundImageFix" result="effect1_dropShadow_209_14"/>
<feBlend mode="normal" in="SourceGraphic" in2="effect1_dropShadow_209_14" result="shape"/>
</filter>
</defs>
</svg>
