<svg width="73" height="73" viewBox="0 0 73 73" fill="none" xmlns="http://www.w3.org/2000/svg">
<g filter="url(#filter0_d_520_66)">
<path d="M68.9513 4.67867L60.826 57.3776C60.6356 58.6134 59.8897 59.6908 58.7985 60.3039C58.1835 60.6491 57.4946 60.8241 56.8078 60.8241C56.2761 60.8241 55.7516 60.7206 55.2475 60.5102L39.6825 54.0229L33.2254 63.7082C32.7303 64.5557 31.9051 65 31.0164 65C29.5564 65 28.3756 63.8193 28.3756 62.3593V50.1488C28.3756 49.2455 28.6768 48.3676 29.2316 47.6554L56.8141 12.1868L19.5267 45.7409L6.4996 40.3073C5.07107 39.7106 4.10296 38.3649 4.00774 36.7018C3.91252 35.0387 4.70207 33.6904 6.04668 32.9223L62.9236 0.536135C64.2808 -0.239433 65.9554 -0.168084 67.2402 0.714633C68.525 1.59735 69.1925 3.13744 68.9513 4.67867Z" fill="#D894A0"/>
</g>
<defs>
<filter id="filter0_d_520_66" x="0" y="0" width="73" height="73" filterUnits="userSpaceOnUse" color-interpolation-filters="sRGB">
<feFlood flood-opacity="0" result="BackgroundImageFix"/>
<feColorMatrix in="SourceAlpha" type="matrix" values="0 0 0 0 0 0 0 0 0 0 0 0 0 0 0 0 0 0 127 0" result="hardAlpha"/>
<feOffset dy="4"/>
<feGaussianBlur stdDeviation="2"/>
<feComposite in2="hardAlpha" operator="out"/>
<feColorMatrix type="matrix" values="0 0 0 0 0 0 0 0 0 0 0 0 0 0 0 0 0 0 0.25 0"/>
<feBlend mode="normal" in2="BackgroundImageFix" result="effect1_dropShadow_520_66"/>
<feBlend mode="normal" in="SourceGraphic" in2="effect1_dropShadow_520_66" result="shape"/>
</filter>
</defs>
</svg>
