<svg width="68" height="54" viewBox="0 0 68 54" fill="none" xmlns="http://www.w3.org/2000/svg">
<path d="M30.5857 15.8768C30.7048 16.6107 30.7697 17.3662 30.7697 18.0354C30.7697 18.8989 30.7048 19.6544 30.5857 20.3883L32.9884 22.5254C33.746 23.2053 34.0598 24.1875 33.6594 25.2237C33.4105 25.6986 33.1399 26.357 32.8369 26.8966L32.5014 27.4795C32.0793 28.0191 31.8195 28.5372 31.4407 29.0445C30.8238 29.8647 29.7416 30.1346 28.7675 29.8108L25.7047 28.807C24.5466 29.7676 23.2263 30.5339 21.7868 31.0736L21.0401 34.2036C20.921 35.2074 20.1418 36.0061 19.1244 36.1356C18.3993 36.2219 17.6634 36.2651 16.9166 36.2651C16.1698 36.2651 15.4339 36.2219 14.7088 36.1356C13.6914 36.0061 12.8148 35.2074 12.6957 34.2036L11.949 31.0736C10.6069 30.5339 9.28656 29.7676 8.12311 28.807L5.06893 29.8108C4.09596 30.1346 3.01153 29.8647 2.39463 29.0445C2.0115 28.5372 1.65435 28.0083 1.32534 27.4687L0.998493 26.8966C0.696538 26.357 0.421856 25.7957 0.176396 25.2237C-0.224478 24.1875 0.0826714 23.2053 0.846974 22.5254L3.24746 20.3883C3.12625 19.6544 2.96607 18.8989 2.96607 18.0354C2.96607 17.3662 3.12625 16.6107 3.24746 15.8768L0.846974 13.7397C0.0826714 12.9626 -0.224478 11.9804 0.176396 11.0414C0.421856 10.3723 0.696538 9.90707 0.997411 9.36417L1.32642 8.79753C1.65435 8.25247 2.0115 7.72576 2.39463 7.21956C3.01153 6.40468 4.09596 6.13377 5.06893 6.45325L8.12311 7.45701C9.28656 6.50289 10.6069 5.73442 11.949 5.19692L12.6957 2.05934C12.8148 1.05773 13.6914 0.255799 14.7088 0.132864C15.4339 0.0451155 16.1698 0 16.9166 0C17.6634 0 18.3993 0.0451155 19.1244 0.132756C20.1418 0.255798 20.921 1.05773 21.0401 2.05934L21.7868 5.19692C23.2263 5.73442 24.5466 6.50289 25.7047 7.45701L28.7675 6.45325C29.7416 6.13377 30.8238 6.40468 31.4407 7.21956C31.8195 7.7236 32.0793 8.24815 32.5014 8.78997L32.8369 9.37172C33.1399 9.91246 33.4105 10.4694 33.6594 11.0414C34.0598 11.9804 33.746 12.9626 32.9884 13.7397L30.5857 15.8768ZM16.9166 12.8547C14.0486 12.8547 11.7217 15.2724 11.7217 18.0354C11.7217 20.9927 14.0486 23.2161 16.9166 23.2161C19.7846 23.2161 22.1115 20.9927 22.1115 18.0354C22.1115 15.2724 19.7846 12.8547 16.9166 12.8547ZM52.0797 50.7604C51.3438 50.8791 50.5862 50.9438 49.8178 50.9438C49.0494 50.9438 48.2918 50.8791 47.5558 50.7604L45.4129 53.1564C44.6337 53.912 43.6488 54.225 42.7072 53.8256C42.1336 53.5774 41.5708 53.3075 41.0297 53.0053L40.4453 52.6707C39.9041 52.2498 39.3846 51.9908 38.876 51.613C38.0534 50.9978 37.7829 49.9185 38.1076 48.9471L39.1141 45.8926C38.1508 44.7378 37.3824 43.421 36.8413 41.9855L33.7027 41.2408C32.6962 41.122 31.8953 40.3449 31.7654 39.3304C31.6788 38.6072 31.6355 37.8733 31.6355 37.1286C31.6355 36.3838 31.6788 35.6499 31.7654 34.9268C31.8953 33.9122 32.6962 33.0379 33.7027 32.9192L36.8413 32.1745C37.3824 30.8361 38.1508 29.5194 39.1141 28.3645L38.1076 25.31C37.7829 24.3386 38.0534 23.2593 38.876 22.6441C39.3846 22.2663 39.915 21.813 40.4561 21.5756L41.0297 21.2518C41.5708 20.9496 42.0362 20.6797 42.7072 20.4315C43.6488 20.0322 44.6337 20.3452 45.4129 21.1007L47.5558 23.4968C48.2918 23.378 49.0494 23.3133 49.8178 23.3133C50.5862 23.3133 51.3438 23.378 52.0797 23.4968L54.2226 21.1007C54.9045 20.3452 55.8893 20.0322 56.9283 20.4315C57.5019 20.6797 58.0647 20.9496 58.6059 21.2518L59.1795 21.5756C59.7206 21.813 60.2509 22.2663 60.7596 22.6441C61.5821 23.2593 61.8527 24.3386 61.528 25.31L60.5215 28.3645C61.4847 29.5194 62.2531 30.8361 62.7943 32.1745L65.9329 32.9192C66.9394 33.0379 67.7402 33.9122 67.8701 34.9268C67.9567 35.6499 68 36.3838 68 37.1286C68 37.8733 67.9567 38.6072 67.8701 39.3304C67.7402 40.3449 66.9394 41.122 65.9329 41.2408L62.7943 41.9855C62.2531 43.421 61.4847 44.7378 60.5215 45.8926L61.528 48.9471C61.8527 49.9185 61.5821 50.9978 60.7596 51.613C60.2509 51.9908 59.7314 52.2498 59.1903 52.6707L58.6059 53.0053C58.0647 53.3075 57.4045 53.5774 56.9283 53.8256C55.8893 54.225 54.9045 53.912 54.2226 53.1564L52.0797 50.7604ZM55.0127 37.1286C55.0127 34.2684 52.6858 31.9478 49.8178 31.9478C46.9497 31.9478 44.6229 34.2684 44.6229 37.1286C44.6229 39.9888 46.9497 42.3093 49.8178 42.3093C52.6858 42.3093 55.0127 39.9888 55.0127 37.1286Z" fill="black"/>
</svg>
