<svg width="51" height="57" viewBox="0 0 51 57" fill="none" xmlns="http://www.w3.org/2000/svg">
<path opacity="0.75" d="M50.9618 4.10284L44.5865 50.3158C44.4371 51.3995 43.8519 52.3442 42.9957 52.8819C42.5132 53.1846 41.9727 53.338 41.4338 53.338C41.0166 53.338 40.6051 53.2473 40.2096 53.0628L27.997 47.3739L22.9307 55.8672C22.5422 56.6103 21.8947 57 21.1975 57C20.0519 57 19.1255 55.9646 19.1255 54.6843V43.9767C19.1255 43.1845 19.3618 42.4147 19.7971 41.7901L41.4388 10.6869L12.1825 40.1113L1.96122 35.3464C0.840378 34.8231 0.0807807 33.643 0.00607108 32.1846C-0.0686385 30.7262 0.550854 29.5439 1.60585 28.8703L46.2324 0.470149C47.2973 -0.209964 48.6112 -0.147397 49.6192 0.626678C50.6273 1.40075 51.151 2.75129 50.9618 4.10284Z" fill="#D894A0"/>
</svg>
