<svg width="42" height="52" viewBox="0 0 42 52" fill="none" xmlns="http://www.w3.org/2000/svg">
<path d="M15 40.625C15 41.5187 14.325 42.25 13.5 42.25C12.675 42.25 12 41.5187 12 40.625V19.5C12 18.6063 12.675 17.875 13.5 17.875C14.325 17.875 15 18.6063 15 19.5V40.625ZM22.5 40.625C22.5 41.5187 21.825 42.25 21 42.25C20.175 42.25 19.5 41.5187 19.5 40.625V19.5C19.5 18.6063 20.175 17.875 21 17.875C21.825 17.875 22.5 18.6063 22.5 19.5V40.625ZM30 40.625C30 41.5187 29.325 42.25 28.5 42.25C27.675 42.25 27 41.5187 27 40.625V19.5C27 18.6063 27.675 17.875 28.5 17.875C29.325 17.875 30 18.6063 30 19.5V40.625ZM29.7656 2.53297L33.2063 8.125H39.75C40.9969 8.125 42 9.2168 42 10.5625C42 11.9133 40.9969 13 39.75 13H39V43.875C39 48.3641 35.6437 52 31.5 52H10.5C6.35812 52 3 48.3641 3 43.875V13H2.25C1.00781 13 0 11.9133 0 10.5625C0 9.2168 1.00781 8.125 2.25 8.125H8.79562L12.2344 2.53297C13.2094 0.95032 14.85 0 16.6031 0H25.3969C27.15 0 28.7906 0.950422 29.7656 2.53297ZM14.2031 8.125H27.7969L26.0156 5.23656C25.875 5.01109 25.6406 4.875 25.3969 4.875H16.6031C16.3594 4.875 16.0406 5.01109 15.9844 5.23656L14.2031 8.125ZM7.5 43.875C7.5 45.6727 8.84344 47.125 10.5 47.125H31.5C33.1594 47.125 34.5 45.6727 34.5 43.875V13H7.5V43.875Z" fill="black"/>
</svg>
