<svg width="57" height="46" viewBox="0 0 57 46" fill="none" xmlns="http://www.w3.org/2000/svg">
<path d="M15.834 23C15.834 15.7406 21.5046 9.85714 28.5012 9.85714C35.4979 9.85714 41.1685 15.7406 41.1685 23C41.1685 30.2594 35.4979 36.1429 28.5012 36.1429C21.5046 36.1429 15.834 30.2594 15.834 23ZM28.5012 31.2143C32.8754 31.2143 36.4183 27.5384 36.4183 23C36.4183 18.4616 32.8754 14.7857 28.5012 14.7857C28.432 14.7857 28.3726 14.7857 28.2143 14.7857C28.432 15.3094 28.5012 15.8638 28.5012 16.4286C28.5012 20.0531 25.661 23 22.1676 23C21.6233 23 21.0889 22.9281 20.5842 22.7022C20.5842 22.8665 20.5842 22.9281 20.5842 22.9076C20.5842 27.5384 24.1271 31.2143 28.5012 31.2143ZM9.44302 8.27589C14.1022 3.78268 20.5051 0 28.5012 0C36.4974 0 42.9003 3.78268 47.5614 8.27589C52.1929 12.7321 55.2904 17.979 56.7551 21.7371C57.0816 22.5482 57.0816 23.4518 56.7551 24.2629C55.2904 27.9286 52.1929 33.1754 47.5614 37.7241C42.9003 42.2214 36.4974 46 28.5012 46C20.5051 46 14.1022 42.2214 9.44302 37.7241C4.81157 33.1754 1.71602 27.9286 0.243559 24.2629C-0.0811865 23.4518 -0.0811865 22.5482 0.243559 21.7371C1.71602 17.979 4.81157 12.7321 9.44302 8.27589ZM28.5012 4.92857C22.0489 4.92857 16.7445 7.96786 12.6771 11.8799C8.86706 15.5558 6.23664 19.8272 4.89272 23C6.23664 26.0804 8.86706 30.4442 12.6771 34.1201C16.7445 38.0321 22.0489 41.0714 28.5012 41.0714C34.9536 41.0714 40.258 38.0321 44.3254 34.1201C48.1354 30.4442 50.6788 26.0804 52.1137 23C50.6788 19.8272 48.1354 15.5558 44.3254 11.8799C40.258 7.96786 34.9536 4.92857 28.5012 4.92857Z" fill="black"/>
</svg>
